<svg width="2123" height="872" viewBox="0 0 2123 872" version="1.1" xmlns="http://www.w3.org/2000/svg" xmlns:xlink="http://www.w3.org/1999/xlink">
<title>MDGLOGO</title>
<desc>Created using Figma</desc>
<g id="Canvas" transform="translate(504 -2140)">
<g id="MDGLOGO">
<g id="Vector">
<use xlink:href="#path0_fill" transform="translate(767.889 2144.36)" fill="#F2C94C"/>
</g>
<g id="Vector">
<use xlink:href="#path1_fill" transform="translate(897.701 2144.36)" fill="#F2C94C"/>
</g>
<g id="Union">
<use xlink:href="#path2_fill" transform="translate(-504 2140)" fill="#FFFFFF"/>
</g>
<g id="Vector">
<use xlink:href="#path3_fill" transform="translate(767.962 2375.73)" fill="#F2C94C"/>
</g>
<g id="Vector">
<use xlink:href="#path4_fill" transform="translate(1523.64 2579.67)" fill="#F2C94C"/>
</g>
<g id="Vector">
<use xlink:href="#path5_fill" transform="translate(535.153 2671.1)" fill="#F2C94C"/>
</g>
<g id="Vector">
<use xlink:href="#path6_fill" transform="translate(451.768 2397.69)" fill="#FFFFFF"/>
</g>
</g>
</g>
<defs>
<path id="path0_fill" d="M 844.874 527.902C 840.076 518.01 837.604 505.063 831.643 496.045C 826.7 488.553 820.084 482.225 815.577 474.443C 812.16 468.697 809.979 462.078 803.872 458.951C 795.366 454.587 786.643 451.314 777.555 448.259C 769.777 445.641 764.47 440.913 761.271 435.24L 465.242 435.24C 446.195 435.24 430.783 450.659 430.783 469.715L 430.783 470.443C 430.783 489.499 446.195 504.918 465.242 504.918L 783.953 504.918C 750.221 670.603 599.953 797.086 421.26 792.285C 229.336 787.121 74.1969 629.437 71.2889 437.349C 68.2356 235.952 231.299 71.5029 431.874 71.5029C 520.493 71.5029 601.698 103.433 664.582 156.528C 678.394 168.165 698.823 167.147 711.618 154.346L 712.127 153.836C 726.521 139.363 725.576 115.652 710.018 102.414C 634.266 38.1185 535.978 -0.575392 428.675 0.00647071C 195.022 1.31566 3.3158 191.367 0.0443613 425.057C -3.37247 666.094 190.951 862.764 431.147 862.764C 634.121 862.764 804.236 724.353 850.108 534.738C 848 532.847 846.183 530.593 844.874 527.902Z"/>
<path id="path1_fill" d="M 60.4125 164.674C 124.46 106.851 209.226 71.5756 302.062 71.5756C 390.682 71.5756 471.886 103.505 534.77 156.6C 548.583 168.238 569.011 167.219 581.806 154.418L 582.315 153.909C 596.71 139.435 595.765 115.724 580.207 102.487C 504.455 38.1185 406.167 -0.575392 298.864 0.00647068C 182.982 0.661066 77.3512 47.792 -1.77487e-05 123.58C 21.7368 134.344 42.3105 150.854 60.4125 164.674Z"/>
<path id="path2_fill" fill-rule="evenodd" d="M 909.313 4.43665C 757.446 4.43665 760.354 150.266 760.354 150.266L 760.354 767.113C 760.354 775.696 756.356 783.987 749.231 788.642C 732.365 799.698 713.9 786.242 713.9 770.677L 713.9 162.849L 713.754 162.849C 711.282 72.8055 637.057 0.654541 546.475 0.945557C 450.876 1.23645 374.761 84.0065 381.086 179.359C 381.086 179.496 381.102 179.633 381.119 179.778L 381.119 179.779C 381.138 179.941 381.158 180.113 381.158 180.305L 381.158 307.369C 381.158 307.393 381.118 307.417 381.078 307.442C 380.997 307.49 380.916 307.539 381.158 307.587L 381.158 402.94C 381.158 408.759 378.25 414.214 373.743 418.287C 369.309 422.36 363.347 424.978 357.241 424.978C 345.027 424.978 334.704 414.577 334.704 402.94L 334.704 185.978L 334.704 184.96C 334.486 185.542 334.122 186.123 333.686 186.632C 333.658 186.66 333.641 186.688 333.627 186.712C 333.603 186.75 333.586 186.778 333.541 186.778C 333.505 186.923 333.468 187.305 333.432 187.687C 333.396 188.069 333.359 188.451 333.323 188.596L 333.614 190.051L 332.741 190.051L 333.832 178.341L 333.904 178.268L 333.686 185.76L 333.614 186.196L 333.686 186.196L 333.686 186.342C 333.686 186.269 333.686 186.123 333.759 186.051C 333.759 185.914 333.775 185.777 333.792 185.632L 333.792 185.631L 333.793 185.628C 333.812 185.467 333.832 185.296 333.832 185.105C 333.918 184.287 334.029 183.545 334.136 182.835L 334.137 182.832L 334.139 182.819L 334.14 182.813L 334.141 182.807C 334.213 182.327 334.282 181.861 334.341 181.396C 334.486 180.668 334.559 179.941 334.631 179.141C 334.631 179.068 334.65 178.996 334.668 178.923C 334.686 178.85 334.704 178.777 334.704 178.705C 334.777 178.341 334.777 177.905 334.777 177.395L 334.777 177.104C 334.777 176.653 334.548 176.201 334.293 175.699L 334.293 175.698C 334.26 175.634 334.228 175.57 334.195 175.504L 334.777 168.74L 334.777 172.668C 334.849 170.922 334.849 169.031 334.849 167.286C 334.849 166.809 334.859 166.622 334.871 166.387L 334.871 166.384L 334.872 166.383C 334.893 165.972 334.922 165.411 334.922 162.922C 332.814 73.8239 259.098 0 168.297 0C 77.4966 0 3.85303 73.8239 1.74475 162.849C 1.69714 165.372 1.74292 165.901 1.78027 166.332C 1.80005 166.56 1.81738 166.76 1.81738 167.213C 1.81738 168.086 1.83557 168.995 1.85376 169.904C 1.87195 170.813 1.89014 171.722 1.89014 172.595L 1.89014 834.9C 1.89014 854.975 18.1746 871.34 38.3121 871.34L 39.0391 871.34C 59.1039 871.34 75.4611 855.047 75.4611 834.9L 75.4611 167.649C 75.4611 116.154 116.899 74.4058 168.297 74.4058C 219.695 74.4058 261.133 116.154 261.133 167.649L 261.133 394.212C 260.915 396.467 260.842 398.794 260.842 401.122C 260.842 454.362 303.953 498.365 357.168 498.365C 383.776 498.365 408.057 487.092 425.795 469.49C 443.461 451.889 454.511 428.033 454.511 402.867L 454.511 167.649C 454.511 116.154 495.949 73.8966 547.347 73.8966C 597.509 73.8966 638.148 112.518 640.111 162.849L 640.183 162.849L 640.183 755.185L 639.747 770.677C 639.747 826.027 684.748 868.867 739.562 866.976C 791.396 865.23 833.707 819.335 833.707 767.404L 833.707 118.868L 833.925 117.54L 833.925 148.666C 833.925 112.917 860.228 82.6263 894.305 76.3323L 904.22 75.2037C 905.282 75.1567 906.35 75.1331 907.423 75.1331L 1064.16 75.1331L 1064.16 75.6422L 1065.91 75.6422C 1264.66 75.6422 1427.51 236.891 1427.51 435.742C 1427.51 631.457 1270.82 790.746 1076.37 795.723L 1076.37 795.697L 971.98 795.697C 952.642 795.697 937.012 811.553 937.012 831.045L 937.012 831.773C 937.012 851.338 952.642 867.121 971.98 867.121L 1064.16 867.121L 1064.16 867.194L 1066.71 867.194C 1304.79 867.194 1498.83 673.87 1498.83 435.67C 1498.83 197.47 1305.16 4.36401 1067.07 4.36401L 1064.16 4.36401L 1064.16 4.5094L 909.313 4.5094L 909.313 4.43665ZM 1.89014 172.595L 1.89014 167.649C 1.89014 174.413 2.25366 181.105 2.98059 187.651C 2.32629 182.705 2.03552 177.686 1.89014 172.595ZM 334.704 185.978C 334.704 186.123 334.704 186.414 334.631 186.632L 334.631 186.269C 334.559 186.342 334.631 186.123 334.631 186.123C 334.559 186.123 334.704 185.905 334.704 185.978ZM 0.0727539 172.704C 0.0545654 172.668 0.036377 172.631 0 172.595L 0 167.649C 0 169.325 0.0670166 170.934 0.136719 172.604L 0.145386 172.813C 0.109131 172.777 0.0909424 172.741 0.0727539 172.704ZM 0.145386 172.813C 2.43396 176.037 1.93201 179.232 1.43457 182.396C 1.17395 184.054 0.914551 185.705 1.05896 187.347C 0.569458 182.572 0.28772 177.727 0.145386 172.813Z"/>
<path id="path3_fill" d="M 836.078 278.13C 825.9 262.857 814.268 248.746 803.218 234.127C 793.767 221.69 786.861 216.526 772.176 211.58C 767.014 209.834 763.016 207.143 759.89 203.943L 465.17 203.943C 446.123 203.943 430.711 219.362 430.711 238.418L 430.711 239.146C 430.711 258.202 446.123 273.621 465.17 273.621L 783.88 273.621C 750.148 439.306 599.88 565.789 421.187 560.989C 229.263 555.824 74.1242 398.14 71.2162 206.052C 70.562 163.213 77.4684 122.118 90.6268 83.861C 85.3198 77.4605 80.8125 71.06 77.2503 65.2414C 64.9642 45.2398 55.6587 22.9836 49.4794 4.43926e-06C 18.8006 58.1136 1.06212 124.01 0.0443436 193.76C -3.37249 434.797 190.951 631.467 431.147 631.467C 633.685 631.467 803.581 493.638 849.818 304.605"/>
<path id="path4_fill" d="M 94.0719 100.664C 94.0719 100.664 113.701 -0.507215 7.09947e-05 0.00191516L 94.0719 100.664Z"/>
<path id="path5_fill" d="M 62.0118 18.4014L 11.4863 18.4014C 5.16156 18.4014 1.77487e-05 14.3284 1.77487e-05 9.3098L 1.77487e-05 9.09162C 1.77487e-05 4.07305 5.16156 8.87852e-06 11.4863 8.87852e-06L 62.0118 8.87852e-06C 68.3366 8.87852e-06 73.4982 4.07305 73.4982 9.09162L 73.4982 9.3098C 73.4982 14.3284 68.3366 18.4014 62.0118 18.4014Z"/>
<path id="path6_fill" d="M 178.984 34.839C 191.27 34.839 201.23 44.8034 201.23 57.0953L 201.23 295.15C 201.23 307.442 191.27 317.406 178.984 317.406L 57.0683 317.406C 44.7823 317.406 34.8226 307.442 34.8226 295.15L 34.8226 57.0953C 34.8226 44.8034 44.7823 34.839 57.0683 34.839L 178.984 34.839ZM 178.984 -8.87852e-06L 57.0683 -8.87852e-06C 25.5899 -8.87852e-06 -3.54973e-05 25.602 -3.54973e-05 57.0953L -3.54973e-05 295.15C -3.54973e-05 326.643 25.5899 352.245 57.0683 352.245L 178.984 352.245C 210.462 352.245 236.052 326.643 236.052 295.15L 236.052 57.0953C 236.052 25.6747 210.462 -8.87852e-06 178.984 -8.87852e-06Z"/>
</defs>
</svg>
